# xmcd
#
# Track frame offsets:
#	151
#	24408
#	50013
#	70668
#	89897
#	112430
#	133465
#	152924
#	178833
#	198068
#	216845
#	236364
#	257313
#
# Disc length: 3698 seconds
#
# Revision: 0
# Processed by: cddbd v1.5.2PL0 Copyright (c) Steve Scherf et al.
# Submitted via: EasyCDDAExtractor 16.0.9.1
#
DISCID=c10e700d
DTITLE=Various Artist - Cover Girl (13 NRG Makeovers)
DYEAR=2000
DGENRE=Euro-House
TTITLE0=In.Deep - Beautiful Stranger (Def-In-Mix)
TTITLE1=Sheldon - Look At Me (Power Mix)
TTITLE2=TK - Man! I Feel Like A Woman
TTITLE3=Level Eleven - Kiss Me (Dance Remix)
TTITLE4=Helen - (You Drive Me) Crazy (Remix)
TTITLE5=Sheldon - Mi Chico Latino (Club Mix)
TTITLE6=TK - That Don't Impress Me Much (Def-In-Mix)
TTITLE7=Alisha - Papa Don't Preach (Akasaka Mix)
TTITLE8=Candy	 - Viva La Radio (Latino Mix)
TTITLE9=TK - Waiting For Tonight (Original House Mix)
TTITLE10=Angelica - My Love Is Your Love (Dance Remix)
TTITLE11=TR 808 - I Saved The World Today (Def-In-Remix)
TTITLE12=TK - If You Had My Love (Instinctive Mix)
EXTD=
EXTT0=
EXTT1=
EXTT2=
EXTT3=
EXTT4=
EXTT5=
EXTT6=
EXTT7=
EXTT8=
EXTT9=
EXTT10=
EXTT11=
EXTT12=
PLAYORDER=
